<svg xmlns="http://www.w3.org/2000/svg" xmlns:xlink="http://www.w3.org/1999/xlink" width="209" height="78" viewBox="0 0 209 78">
    <defs>
        <path id="u2j8hp1u3a" d="M171.201 103.49c1.501 0 3.02-.098 4.553-.294 1.534-.196 2.66-.392 3.378-.588v-20.66h17.136c1.828 0 3.28-.54 4.358-1.616 1.077-1.078 1.616-2.856 1.616-5.337 0-1.306-.18-2.546-.539-3.721-.359-1.175-.8-2.122-1.322-2.84h-21.444V57.37H199.5c1.828 0 3.28-.538 4.357-1.615 1.077-1.078 1.616-2.889 1.616-5.435 0-1.306-.18-2.562-.539-3.77-.359-1.208-.767-2.17-1.224-2.889h-32.607c-2.807 0-5.027.816-6.659 2.448-1.632 1.632-2.448 3.852-2.448 6.659v42.595c0 1.698.196 3.068.588 4.113.392 1.044.98 1.86 1.763 2.448.783.587 1.746.995 2.888 1.224 1.143.228 2.465.343 3.966.343zm63.746 1.077c3.72 0 7.164-.376 10.33-1.126 3.167-.751 5.892-1.845 8.177-3.28 2.742-1.633 4.112-4.08 4.112-7.345V63.05c0-1.632-.212-2.954-.636-3.966-.424-1.012-1.028-1.812-1.812-2.4-.783-.587-1.746-.978-2.888-1.174-1.143-.196-2.432-.294-3.868-.294-1.502 0-2.954.098-4.358.294-1.403.196-2.431.391-3.084.587v34.272c-.522.261-1.257.523-2.203.784-.947.26-2.17.391-3.672.391-2.48 0-4.374-.57-5.68-1.713-1.305-1.143-1.958-3.052-1.958-5.729V63.05c0-1.632-.212-2.954-.636-3.966-.425-1.012-1.029-1.812-1.812-2.4-.783-.587-1.746-.978-2.889-1.174-1.142-.196-2.431-.294-3.867-.294-1.502 0-2.954.098-4.358.294-1.403.196-2.432.391-3.084.587v28.005c0 3.656.587 6.773 1.762 9.352 1.175 2.578 2.84 4.684 4.994 6.316 2.154 1.632 4.717 2.84 7.687 3.623 2.97.783 6.218 1.175 9.743 1.175zm53.073 16.157c3.46 0 6.707-.392 9.743-1.176 3.035-.783 5.679-2.007 7.931-3.672 2.252-1.664 4.031-3.753 5.337-6.266 1.305-2.514 1.958-5.5 1.958-8.96V66.378c0-1.763-.375-3.199-1.126-4.309-.75-1.11-1.779-2.121-3.084-3.035-2.09-1.502-4.652-2.726-7.687-3.672-3.036-.947-6.414-1.42-10.135-1.42-3.656 0-7.034.473-10.135 1.42-3.1.946-5.777 2.383-8.029 4.308-2.252 1.926-4.015 4.358-5.288 7.295-1.273 2.938-1.91 6.398-1.91 10.38 0 4.047.605 7.54 1.812 10.477 1.208 2.938 2.807 5.337 4.798 7.198 1.991 1.86 4.309 3.23 6.953 4.112 2.644.881 5.434 1.322 8.372 1.322 3.851 0 7.115-.587 9.792-1.762v1.566c0 2.611-1.045 4.505-3.134 5.68-2.088 1.175-4.896 1.762-8.42 1.762-2.547 0-5.01-.359-7.394-1.077-2.382-.718-4.52-1.6-6.413-2.644-.784.588-1.485 1.453-2.106 2.595-.62 1.142-.93 2.464-.93 3.966 0 3.59 1.697 6.185 5.092 7.784 3.395 1.6 8.062 2.4 14.003 2.4zm2.643-32.706c-2.48 0-4.52-.832-6.12-2.497-1.599-1.664-2.399-4.39-2.399-8.176 0-3.33.8-5.892 2.4-7.687 1.599-1.795 3.998-2.693 7.196-2.693 1.306 0 2.4.131 3.28.392.882.261 1.551.522 2.008.783v18.018c-1.567 1.24-3.688 1.86-6.365 1.86zm56.794 16.549c3.72 0 7.164-.376 10.33-1.126 3.167-.751 5.892-1.845 8.177-3.28 2.742-1.633 4.112-4.08 4.112-7.345V63.05c0-1.632-.212-2.954-.636-3.966-.424-1.012-1.028-1.812-1.812-2.4-.783-.587-1.746-.978-2.888-1.174-1.143-.196-2.432-.294-3.868-.294-1.501 0-2.954.098-4.357.294-1.404.196-2.432.391-3.085.587v34.272c-.522.261-1.257.523-2.203.784-.947.26-2.17.391-3.672.391-2.48 0-4.374-.57-5.68-1.713-1.305-1.143-1.958-3.052-1.958-5.729V63.05c0-1.632-.212-2.954-.636-3.966-.425-1.012-1.029-1.812-1.812-2.4-.783-.587-1.746-.978-2.889-1.174-1.142-.196-2.431-.294-3.867-.294-1.502 0-2.954.098-4.358.294-1.403.196-2.431.391-3.084.587v28.005c0 3.656.587 6.773 1.762 9.352 1.175 2.578 2.84 4.684 4.994 6.316 2.154 1.632 4.717 2.84 7.687 3.623 2.97.783 6.218 1.175 9.743 1.175z"/>
    </defs>
    <g fill="none" fill-rule="evenodd">
        <g fill="#3DBC79" fill-rule="nonzero">
            <g transform="translate(-514 -210) translate(352.36 167.04)">
                <use xlink:href="#u2j8hp1u3a"/>
                <use xlink:href="#u2j8hp1u3a"/>
            </g>
        </g>
    </g>
</svg>